<?xml version="1.0" encoding="UTF-8" standalone="no"?>
<svg
   xmlns:dc="http://purl.org/dc/elements/1.1/"
   xmlns:cc="http://creativecommons.org/ns#"
   xmlns:rdf="http://www.w3.org/1999/02/22-rdf-syntax-ns#"
   xmlns:svg="http://www.w3.org/2000/svg"
   xmlns="http://www.w3.org/2000/svg"
   xmlns:sodipodi="http://sodipodi.sourceforge.net/DTD/sodipodi-0.dtd"
   xmlns:inkscape="http://www.inkscape.org/namespaces/inkscape"
   viewBox="0 0 348 348"
   fill="none"
   version="1.1"
   id="svg10"
   sodipodi:docname="cruelStars.svg"
   inkscape:version="0.92.3 (2405546, 2018-03-11)">
  <metadata
     id="metadata16">
    <rdf:RDF>
      <cc:Work
         rdf:about="">
        <dc:format>image/svg+xml</dc:format>
        <dc:type
           rdf:resource="http://purl.org/dc/dcmitype/StillImage" />
      </cc:Work>
    </rdf:RDF>
  </metadata>
  <defs
     id="defs14" />
  <sodipodi:namedview
     pagecolor="#ffffff"
     bordercolor="#666666"
     borderopacity="1"
     objecttolerance="10"
     gridtolerance="10"
     guidetolerance="10"
     inkscape:pageopacity="0"
     inkscape:pageshadow="2"
     inkscape:window-width="1920"
     inkscape:window-height="1017"
     id="namedview12"
     showgrid="false"
     inkscape:zoom="1.9181287"
     inkscape:cx="126.43049"
     inkscape:cy="172.37934"
     inkscape:window-x="-8"
     inkscape:window-y="-8"
     inkscape:window-maximized="1"
     inkscape:current-layer="svg10" />
  <path
     id="path2"
     d="M 5.078125,5.7753906 5.0800781,343.44531 H 284.54492 c -0.0368,-0.60048 0.005,-1.20367 0.0176,-1.63476 0.5044,-1.84542 1.36908,-3.58704 2.46875,-5.1543 1.30024,-1.85312 0.60984,-0.57264 1.01758,-1.34766 0.17207,-0.2707 -0.10329,-0.053 -0.0957,-0.0976 0.1977,-1.1631 0.36645,-1.52196 0.97657,-2.60547 1.19254,-2.11783 0.36713,-0.30926 0.90234,-1.5293 0.19153,-0.51865 0.63226,-0.92076 0.82813,-1.4375 0.0351,-0.0925 -0.0537,-0.20076 -0.0234,-0.29492 0.48761,-1.51474 1.23952,-2.9164 1.99219,-4.31055 -0.0163,-4.3e-4 -0.0326,4.4e-4 -0.0488,0 -0.56047,0.0143 -1.12866,0.0628 -1.69141,0.082 -0.87097,0.8992 -1.75034,1.79048 -2.64062,2.67383 -0.94459,0.649 -1.54672,1.68442 -2.43555,2.39649 -0.35857,0.28727 -0.77212,0.49812 -1.14844,0.76172 -0.90554,0.63432 -1.71907,1.3919 -2.60937,2.05078 -0.94558,2.20982 -4.2425,-0.81667 -4.9375,-1.41211 -0.0142,-0.0122 0.27689,-2.55697 0.29687,-2.88867 -0.0218,-2.13241 -0.41511,-2.57081 1.52735,-4.69141 0.0305,-0.31108 -0.23512,0.11739 -0.23243,0.0391 0.011,-0.31917 0.10817,-0.63316 0.21094,-0.93554 0.42609,-1.2537 0.99387,-2.36617 1.64258,-3.45899 -0.18503,-0.38101 -0.29109,-0.80663 -0.43945,-1.20508 -0.0385,-0.10334 0.20249,0.33794 0.24218,0.22657 -0.12423,-0.17283 -0.27054,-0.33302 -0.37304,-0.51954 -0.0301,-0.0548 0.1879,0.16325 0.15039,0.11328 -0.93016,-1.23869 -0.66605,-0.79646 -1.29688,-1.70703 l -0.77929,-1.54687 c 0.0837,0.0994 0.26401,0.3455 0.0351,-0.10742 -0.4143,-0.82146 -0.70753,-1.3239 -0.98047,-2.14453 -0.0335,-0.0779 -0.0578,-0.16307 -0.0937,-0.23633 -0.21113,-0.43055 -0.40773,-0.86857 -0.61132,-1.30274 -0.006,-0.11075 0.0156,-0.2262 -0.0176,-0.33203 -0.0446,-0.1424 -0.15738,-0.29003 -0.25977,-0.43555 -0.0363,0.004 -0.0248,0.004 -0.0625,0.008 -0.55893,0.0604 -1.12778,-0.0451 -1.6875,0.006 -1.48219,0.0171 -2.96191,-0.007 -4.44336,-0.0566 -1.63052,0.0242 -4.98046,0.8311 -6.01758,-0.74414 -0.60661,-0.92134 -0.35676,-2.17705 -0.53515,-3.26563 1.71021,-1.92503 1.4652,-1.87291 4.16015,-2.05078 0.079,-0.005 0.16935,0.0235 0.22266,0.082 0.0549,0.0602 -0.27861,0.1133 -0.11328,0.2168 1.16328,-0.48265 0.46271,-0.17528 2.07422,-0.97071 1.27831,-0.55531 2.60872,-0.84277 3.95508,-1.13085 0.003,-0.48933 0.0137,-0.97996 0.0137,-1.46876 0,-0.70118 0.10321,-1.29793 0.26953,-1.80859 -0.044,-0.13632 -0.0953,-0.26977 -0.13867,-0.40625 -0.0332,-0.10457 0.0884,0.20043 0.13281,0.30078 0.0104,0.0131 0.0208,0.0261 0.0312,0.0391 0.004,-0.0122 0.009,-0.0231 0.0137,-0.0351 -0.86302,-1.59053 -0.85611,-1.63533 -0.83203,-3.28516 -0.008,-1.00648 -7.1e-4,-2.01169 0.0371,-3.01758 -0.0465,-1.75052 -0.48818,-3.52288 0.875,-4.95898 0.003,-0.006 0.005,-0.0131 0.008,-0.0195 0.14719,-0.71192 0.39263,-1.59476 0.28321,-1.28711 0.0775,-0.20522 0.0893,-0.44899 0.23242,-0.61523 0.0648,-0.0753 0.0285,0.19665 0.043,0.29492 0.035,-0.36118 0.0704,-0.7228 0.10546,-1.08399 0.0628,-0.28384 0.1751,-0.55349 0.28321,-0.82422 -0.0183,-0.20663 -0.0241,-0.41161 0.0254,-0.61132 0.29131,-1.17552 0.74576,-2.01277 1.75976,-2.56641 0.0312,-0.0482 0.0627,-0.0963 0.0937,-0.14453 -0.0117,0.0371 -0.0174,0.0546 -0.0351,0.11133 0.006,-0.003 0.0114,-0.007 0.0176,-0.01 0.43216,-1.27325 0.90431,-2.11321 2.22851,-2.97266 0.27022,-0.17538 0.64975,-0.49485 0.93164,-0.41601 0.36372,-0.35613 0.76392,-0.68802 1.16797,-0.85547 0.0254,-0.0432 0.0484,-0.0879 0.0742,-0.13086 0.64316,-1.0705 2.17007,-1.02928 3.23047,-1.29492 0.39925,-0.0881 0.78918,-0.2386 1.19726,-0.26367 0.087,-0.005 -0.14787,0.11635 -0.16796,0.20117 -0.01,0.0402 0.0881,0.006 0.12304,-0.0156 1.1328,-0.708 1.68958,-1.18339 3.12891,-1.43359 1.0424,6e-5 2.08455,5.9e-4 3.12695,0 1.0388,-3.9e-4 2.07839,5.5e-4 3.11719,0.002 1.0619,-0.004 2.12402,-0.0231 3.18555,0.0156 1.02924,0.0287 2.05106,-0.13921 3.07226,-0.0996 0.082,0.003 0.16408,0.0233 0.2461,0.0293 0.18502,-0.19186 0.39511,-0.33635 0.61718,-0.44532 0.30209,-1.21404 0.7479,-1.86547 1.86719,-1.84375 0.73404,0.0143 1.75388,0.30494 3.20313,0.88672 0.25521,0.10245 0.37207,1.24074 0.4082,2.20703 1.03463,-0.59392 2.13286,-0.47895 3.80664,1.14649 0.26473,0.25707 0.36844,0.68794 0.4082,1.15429 0.38118,0.15777 0.76102,0.34731 1.17383,0.63282 0.31371,0.21697 0.53396,0.54579 0.80078,0.81836 1.4e-4,0.0656 -0.0449,0.14748 0,0.19531 0.14651,0.15599 0.35143,0.24534 0.52735,0.36719 0.31234,0.24566 0.65642,0.45543 0.9375,0.73632 0.10097,0.10091 -0.25095,-0.14142 -0.38672,-0.18554 -0.17638,-0.0573 -0.70466,-0.20803 -0.54297,-0.11719 1.74781,0.98194 1.90711,0.63482 2.43359,1.48047 0.35719,0.16974 0.60679,0.27564 1.05469,0.49609 0.11176,0.055 0.15535,0.44377 0.17773,0.91211 0.0404,0.0338 0.0807,0.0677 0.1211,0.10156 0.28771,-0.0727 0.56711,-0.1 0.82812,-0.0723 1.36839,0.14592 2.22737,1.64201 1.36328,4.01562 0.32273,0.51073 0.59183,0.9445 0.50782,0.89258 0.91899,1.2267 0.80964,2.37253 0.78906,3.87696 4.2e-4,1.03897 -5.5e-4,2.07818 -0.002,3.11718 0.004,1.06444 0.0264,2.12932 -0.0137,3.19336 -0.0155,0.52155 0.0199,1.04064 0.0547,1.5586 0.23752,-0.0857 0.21712,-0.0711 0.57422,-0.20313 0.11826,-0.0437 0.93874,-0.46296 1.14063,-0.48242 0.26037,-0.0251 0.52297,-0.0177 0.78515,-0.0117 0.15385,-0.0425 0.31163,-0.0757 0.4707,-0.10352 -0.026,-0.003 -0.0684,-0.007 -0.0879,-0.01 0.28253,-0.0573 0.56987,-0.0943 0.84766,-0.16992 0.004,-0.002 0.009,-0.003 0.0137,-0.006 -0.0968,0.0208 -0.24639,0.0486 -0.23242,-0.0215 0.0184,-0.0918 1.16085,-0.56601 1.8418,-0.83789 0.72051,-0.50337 0.048,-0.22554 1.96484,-0.78515 0.2531,-0.0168 0.43814,-0.0303 0.60547,-0.0391 0.25576,-0.0675 0.4726,-0.11268 0.48437,-0.0664 0.009,0.036 0.0124,0.0465 0.0215,0.082 0.25547,0.0702 0.24466,0.3309 0.24805,0.92773 0.73373,2.7502 1.09774,3.77934 0.57812,4.07032 0.006,0.0235 0.008,0.0388 0.0137,0.0625 0.005,0.0175 -0.0102,-0.0514 -0.0273,-0.0469 -0.15368,0.0391 -0.29535,0.11445 -0.44531,0.16602 -1.26071,0.43355 -1.24063,0.82938 -1.29102,0.40234 -0.74108,0.4694 -1.88012,1.07719 -2.69922,1.25391 -0.16064,0.0347 -0.32451,0.0497 -0.48828,0.0644 -0.20659,0.23684 -0.50445,0.42361 -0.83789,0.58789 0.35467,0.29211 0.29908,0.96261 -0.12305,2.41797 0.8561,2.95108 0.34279,2.5747 -2.26562,2.60547 h -0.19336 c -0.0416,0.005 -0.0551,0.002 -0.0937,0.006 -0.10054,0.0535 -0.23418,0.13164 -0.30664,0.17187 -0.89114,0.49469 -1.6375,0.43166 -2.58985,0.47461 -0.24839,-0.0269 -0.49756,-0.0421 -0.74609,-0.0605 -0.004,0.002 -0.006,0.004 -0.01,0.006 -0.0823,0.20246 -0.19619,0.49505 -0.20704,0.52149 0.0284,-0.14583 0.1667,-0.5624 0.0859,-0.4375 -1.40933,2.18764 -0.70775,2.08694 -2.23633,2.63086 -0.0871,0.0976 -0.17714,0.19274 -0.26562,0.28906 1.26013,-1.65294 -0.26297,0.34537 -0.29492,0.38086 -0.13052,0.14504 0.44726,-0.63524 0.3125,-0.49414 -2.04468,2.14086 0.14562,0.55322 -2.71094,2.09961 0.2265,-0.10819 0.4548,-0.21271 0.67969,-0.32422 0.44637,-0.22133 -0.8572,0.50745 -1.30274,0.73047 -0.0331,0.0165 0.0679,-0.11183 0.0312,-0.10742 -0.10225,0.0123 -0.18536,0.0614 -0.24609,0.10937 -0.35915,0.73195 -0.80602,1.48912 -1.56641,1.75586 -0.48176,0.169 -0.98006,0.28922 -1.47851,0.40234 -0.004,0.004 -0.0294,0.0367 -0.0312,0.0391 -0.0109,0.011 0.0299,-0.0422 0.0254,-0.0391 -0.0548,0.0124 -0.10929,0.0268 -0.16407,0.0391 -0.30212,0.3528 -0.45039,0.54614 -0.48632,0.61914 0.34595,-0.2245 -0.0952,0.19339 0,0 -0.15482,0.10046 -0.40371,0.27622 -1.05469,0.80273 0.19938,-0.34742 0.0614,-0.0668 -0.5332,0.31836 -0.0238,0.0154 0.0667,-0.0897 0.043,-0.0742 -0.38897,0.25389 -0.7626,0.52862 -1.14453,0.79297 0.0314,-0.0513 0.15217,-0.17003 0.0937,-0.1543 -0.11107,0.0301 -0.1864,0.13715 -0.27929,0.20508 0.0873,-0.14447 0.38347,-0.5505 0.26171,-0.43359 -1.24076,1.19149 -1.14905,1.49203 -2.28515,1.87305 -0.429,0.55436 -0.93326,1.08051 -1.8457,1.50195 -0.29077,0.20354 -0.55509,0.39179 -1.19727,0.81445 -0.13484,0.0888 -0.31146,0.0909 -0.4668,0.13477 -0.25097,0.0709 -0.49918,0.15279 -0.75,0.22265 -0.38027,1.12738 -0.7577,2.24675 -0.89258,2.60938 -0.35982,0.96749 -0.75886,1.91908 -1.13867,2.8789 -0.83485,2.07498 -0.8374,2.57407 -2.22461,4.25586 -0.14559,0.17651 -0.32055,0.32508 -0.5,0.46875 0.005,10e-4 0.0111,-0.002 0.0156,0 0.18051,0.0765 -0.20641,0.33815 -0.25781,0.52735 -0.0167,0.0615 0.0427,0.11976 0.0644,0.17969 -0.24938,1.40315 -0.85705,2.70598 -1.69336,3.85546 -0.22461,0.30872 -0.49292,0.58279 -0.73633,0.87696 -0.71977,2.00091 0.10935,0.0478 -0.82226,1.57422 -0.0313,0.0512 -0.0132,0.11804 -0.0195,0.17773 -0.15985,0.28456 -0.29727,0.58209 -0.47851,0.85352 -0.84908,1.2716 -0.59326,0.53224 -0.78125,1.125 -0.0747,0.11792 -0.15788,0.23144 -0.23633,0.34765 h 51.84766 V 5.7753906 Z M 288.98828,121.54883 c 1.14993,0.003 2.39415,1.00303 2.88477,3.20703 0.17903,0.80426 0.37522,1.60422 0.53711,2.41211 0.18707,0.93353 0.3219,1.632 0.30664,2.30469 0.31799,-0.0805 0.20189,-0.0559 3.37695,-0.67969 0.31651,-0.0622 0.61537,-0.10046 0.89648,-0.11719 2.20986,-0.13149 3.31036,1.06367 3.18165,2.3711 0.21661,0.0108 0.42875,0.004 0.64843,0.0215 -0.0627,-0.0392 -0.23847,-0.0618 -0.18945,-0.11719 0.0928,-0.1049 1.18079,-0.35592 1.23437,-0.375 0.0681,-0.0242 -0.27663,0.0426 -0.21679,0.002 0.57767,-0.39107 1.21927,-0.45351 1.88672,-0.60937 0.90528,-0.0533 1.80361,0.0353 2.69922,0.14844 1.41523,0.17876 2.37579,0.71211 2.93164,1.36914 0.41217,-0.0708 0.8378,0.0574 1.25586,0.0371 0.16007,-0.008 -0.31623,-0.0496 -0.47461,-0.0742 0.57456,-0.18467 1.22553,-0.36505 1.87304,-0.42969 0.21564,-0.0881 0.46755,-0.10969 1.55078,-0.37305 0.0352,8.4e-4 0.0703,6e-4 0.10547,0.002 0.35439,-0.0998 0.65833,-0.15769 1.36133,-0.16406 0.63129,-0.006 1.04251,0.072 1.29102,0.25781 0.30394,-0.0799 0.49199,-0.14575 0.043,-0.10938 3.10403,-0.96336 0.51961,-0.29278 3.18164,-0.6914 0.48934,-0.0733 0.95569,-0.25918 1.4414,-0.35352 0.5851,-0.11365 0.81118,-0.1231 1.14453,-0.12109 0.0619,-0.0555 0.15503,-0.13951 0.19922,-0.17969 0.0909,-0.0826 0.21386,-0.12236 0.32031,-0.18359 0.0713,0.0357 0.1532,0.0586 0.22657,0.0918 1.43614,0.65031 3.22389,0.87382 4.17578,2.11133 0.55951,0.72741 -0.31747,1.64923 -1.46289,2.35547 -0.0197,0.0715 -0.26942,0.25504 -1.02735,0.67383 -0.66006,0.36471 -1.76103,0.70909 -2.56054,0.91992 -0.38524,0.11228 -0.56228,0.14715 -0.74805,0.18555 0.029,0.13589 -0.22841,0.23644 -0.36328,0.3164 -0.44616,0.2645 -0.88726,0.57415 -1.39063,0.69922 -0.38723,0.0962 -0.7909,0.065 -1.19336,0.0469 0.12314,0.004 0.20727,0.0164 0.13477,0.0605 -0.12867,0.0784 -0.51283,0.14272 -0.91016,0.19727 0.20389,0.14017 0.40649,0.29907 0.60743,0.49414 0.30497,0.29607 0.43489,0.70557 0.54101,1.13281 0.34168,-0.0883 0.72664,-0.15777 1.31445,-0.23047 0.76101,0.22314 1.6519,0.18994 2.28321,0.66992 1.00499,0.76411 1.28827,2.00817 1.25,3.23633 1.45117,0.006 1.10955,0.0673 0.58398,1.80664 0.41906,0.38486 0.59029,0.68861 1.08203,1.41211 -0.12341,-0.32707 0.1071,0.0998 0.33203,0.47852 0.003,-0.003 0.0115,-0.001 0.0312,0.006 1.22913,0.41389 1.19925,1.76452 1.77539,2.75 0.14365,0.24571 -0.12459,-0.55444 -0.1875,-0.83203 0.66134,1.52694 -0.11331,-0.38594 0.5,1.7539 0.0188,0.0657 0.005,-0.25951 0.041,-0.20117 0.36321,0.59386 0.46907,1.30431 0.50977,2.00195 0.20905,0.40875 0.41471,0.84154 0.44336,0.94336 0.23296,0.82804 0.0647,1.78006 -0.01,2.6211 -0.0557,1.29165 0.0702,-0.1348 -1.04102,2.4375 -0.041,0.0948 0.3063,-0.27143 0.2461,-0.1875 -0.44425,0.61933 -0.99135,1.30804 -1.67774,1.69726 -0.41653,0.23621 -0.87764,0.38445 -1.3164,0.57617 -0.23512,0.11556 -0.91008,0.44216 -1.02344,0.5293 -0.0451,0.0346 0.19988,-0.0151 0.16797,0.0312 -0.42462,0.62561 -1.69745,1.10065 -2.20703,1.19141 -0.17596,0.0313 -0.35322,0.022 -0.53125,0.004 -0.21187,0.0706 -0.31751,0.097 -0.66992,0.24805 -0.0218,0.009 0.0349,0.0597 0.0137,0.0703 -1.18695,0.59676 -0.55604,0.10255 -1.04688,0.50977 -0.2888,0.13211 -0.55829,0.31495 -0.86523,0.39648 -0.40462,0.10748 -0.82276,0.15227 -1.23828,0.20899 -0.12974,0.5542 -0.25259,1.11292 -0.46289,1.64062 -0.69361,1.74047 -4.2371,0.20443 -4.72852,-0.0488 -0.25119,-0.12953 -0.31514,-0.39984 -0.33398,-0.70704 -1.22226,0.17505 -2.46277,0.14061 -3.69727,0.0352 -0.25197,-0.009 -0.50386,2.7e-4 -0.75586,-0.004 -0.5895,0.54864 -1.49821,0.9639 -2.75195,1.07813 -0.92782,0.0845 -3.55715,0.34281 -3.95703,-0.76172 -0.0481,-0.13285 -0.0766,-0.26844 -0.10352,-0.4043 -0.38256,-0.0374 -0.76465,-0.0845 -1.14648,-0.13281 l -0.68164,0.55273 c 0.0863,-0.0392 0.19372,-0.18514 0.25976,-0.11718 0.0634,0.0653 -0.0861,0.16438 -0.15429,0.22461 -0.35098,0.30973 -0.74381,0.57024 -1.09571,0.8789 -0.0837,0.0734 0.19107,-0.11365 0.28711,-0.16992 -1.24363,0.93836 -0.78688,0.71143 -1.49219,0.83399 -0.11361,0.13245 -0.34669,0.30572 -0.47265,0.39257 -0.49586,0.34191 -1.056,0.58126 -1.58399,0.8711 -1.1513,0.15313 -2.23569,-0.0978 -3.36328,-0.11914 -0.6736,0.42309 -1.42193,0.73367 -2.20508,0.93945 -1.38444,0.36378 -0.89084,-0.0609 -1.32031,0.3418 0.11514,-0.0261 0.41074,-0.17693 0.3457,-0.0781 -0.14418,0.21838 -0.38174,0.37014 -0.61523,0.48828 -1.6788,0.84941 -2.60406,1.01155 -4.375,-0.79101 -0.77154,-0.78532 -0.47381,-2.28162 -0.36719,-3.23828 0.0793,-0.72404 0.15987,-1.25352 0.30274,-1.83204 -0.58572,-0.009 -1.17088,-0.0141 -1.75586,-0.0508 -1.36234,0.23553 -2.87267,0.53752 -4.18946,-0.11914 -0.62295,-0.31066 -1.48965,-0.57673 -1.67382,-1.24804 -0.34266,-1.249 0.17986,-2.58491 0.26953,-3.87696 1.34431,-0.62135 2.03099,-0.76784 3.41015,-1.65429 -0.0931,0.0924 -0.40043,0.32773 -0.27929,0.27734 0.66521,-0.27665 1.26563,-0.69493 1.93359,-0.96484 0.13952,-0.0564 0.30355,0.018 0.45313,0.002 0.32609,-0.0358 0.64957,-0.0912 0.9707,-0.1582 0.54148,-0.11296 0.74783,-0.22975 0.86719,-0.29883 -0.041,-0.0521 -0.0921,-0.0977 -0.12891,-0.15235 -0.0145,-0.0215 -0.0503,-0.0617 -0.0684,-0.0859 -0.002,-4.3e-4 -0.004,4.4e-4 -0.006,0 -1.41748,-0.32874 -1.8295,-0.68574 -3.02344,-1.18946 -0.18765,-0.0792 -0.25843,-0.12071 -0.3125,-0.13671 -0.0591,0.0254 -0.11855,0.04 -0.17773,0.0625 -0.008,0.006 -0.0108,0.007 -0.0195,0.0137 -0.003,-0.001 -0.007,-0.002 -0.01,-0.004 -1.00386,0.3733 -2.01485,0.36361 -3.07812,0.26953 -0.25268,-0.035 -0.45331,-0.0489 -0.65039,-0.0625 -0.036,-0.002 -0.18681,0.001 -0.1875,-0.002 -0.002,-0.007 -0.002,-0.009 -0.004,-0.0156 -1.18426,-0.0673 -1.23583,0.0405 -0.63476,-1.89453 -0.89178,-0.57884 -1.35517,-1.60579 -1.21876,-2.64844 -0.065,-0.10642 -0.13784,-0.21166 -0.19921,-0.31835 -0.8876,-1.45364 -0.35342,-2.98955 -0.36719,-4.53516 -0.0677,-2.48763 1.67014,-3.43593 3.59961,-3.65625 0.0108,-0.31886 0.0274,-0.63752 0.0234,-0.95703 0.13622,-0.95019 -0.20131,-2.32853 -0.0117,-3.25 0.11105,-0.54021 0.28151,-1.06627 0.42187,-1.59961 0.39614,-0.49825 0.79136,-0.99784 1.1875,-1.4961 0.008,-0.008 0.024,-0.0254 0.0332,-0.0352 0.13496,-0.20712 0.26573,-0.41639 0.40235,-0.62305 -0.0525,0.0477 -0.10102,0.0997 -0.1543,0.14649 -0.11673,0.10259 0.37288,-0.49495 0.29688,-0.35938 -0.0417,0.0744 -0.0954,0.1416 -0.14258,0.21289 0.36789,-0.33389 0.72211,-0.68258 1.08008,-1.02734 -0.13943,0.0783 -0.27381,0.16548 -0.41407,0.24219 -0.19516,0.10672 0.36865,-0.25013 0.55274,-0.375 -0.0464,0.0441 -0.0926,0.0884 -0.13867,0.13281 0.46742,-0.26256 0.9356,-0.52508 1.38672,-0.81446 0.03,-0.0192 -0.13136,-0.0136 -0.10157,-0.0332 0.62523,-0.41139 1.26955,-0.60899 2.02735,-0.6914 0.36255,-0.0394 0.72937,0.0317 1.09375,0.0469 0.9348,0.20791 1.88391,0.11574 2.83008,0.0898 0.24603,0.0319 0.49905,0.03 0.7539,0.0195 0.0157,-0.0201 0.0314,-0.0403 0.0469,-0.0606 0.0104,-0.0207 0.0223,-0.0431 0.0332,-0.0644 -0.16125,-1.15407 -0.44008,-2.29474 -0.69141,-3.42774 -0.62866,-2.83418 0.69535,-4.47499 2.17383,-4.4707 z m -1.48242,7.89844 c 8.3e-4,0.006 0.003,0.0116 0.004,0.0176 0.41488,-0.53875 0.85183,-1.0635 1.18945,-1.65234 0.11467,-0.20001 -0.43538,0.22203 -0.54688,0.42383 -0.27154,0.49142 -0.48056,0.88437 -0.64648,1.21094 z m 0.004,0.0176 c -0.0122,0.0158 -0.025,0.0311 -0.0371,0.0469 -0.0129,0.0255 -0.016,0.0374 -0.0274,0.0606 0.0273,-0.001 0.0547,-0.004 0.082,-0.006 -0.006,-0.0338 -0.0129,-0.0676 -0.0176,-0.10157 z m 35.17578,-0.26953 c -0.0281,0.0392 -0.0726,0.0781 -0.10743,0.11719 10e-4,-7.5e-4 0.005,-5e-4 0.006,-0.002 0.0437,-0.0263 0.0814,-0.0877 0.10157,-0.11524 z m -30.05274,1.05078 c -0.0412,0.16791 -0.0914,0.33884 -0.16211,0.51563 0.25708,-0.0671 0.51371,-0.13721 0.76953,-0.20899 -0.0101,-0.008 -0.0233,-0.0275 -0.0332,-0.0351 -0.17143,-0.13257 -0.36718,-0.21216 -0.57422,-0.27149 z m -11.10937,5.51368 c -0.0457,0.12177 -0.0138,0.25685 -0.006,0.38867 0.0432,-0.0767 0.0924,-0.15792 0.10937,-0.21875 -0.0343,-0.0567 -0.0802,-0.23195 -0.10351,-0.16992 z m 0.45312,0.16015 c -0.015,0.0246 -0.0255,0.0519 -0.041,0.0762 -0.10696,0.16713 -0.22834,0.44088 -0.41211,0.44532 -0.002,0.79227 0.002,1.58473 0.0117,2.37695 1.17632,0.28878 2.37383,0.14702 3.58203,0.11719 0.0124,-2.6e-4 0.0247,2.4e-4 0.0371,0 0.0749,-0.4615 0.20844,-0.91234 0.46093,-1.35547 -1.2e-4,-0.20363 0.009,-0.43375 0.0293,-0.66602 -1.45159,0.0658 -3.19839,0.0805 -3.42773,-0.3789 -0.0994,-0.19907 -0.17563,-0.40515 -0.24024,-0.61524 z m 43.36914,9.86328 c 0.16846,0.28221 0.33379,0.53506 0.32813,0.37891 -0.005,-0.125 -0.26529,-0.31444 -0.32813,-0.37891 z m -3.83789,3.49805 c -0.18569,0.76184 -0.25932,1.57736 -0.42383,2.31836 -0.1933,0.32192 -0.38669,0.64493 -0.58007,0.9668 -0.088,0.18978 -0.14451,0.31583 -0.35743,0.7539 -0.0408,0.084 -0.0997,0.15704 -0.15234,0.23438 0.0536,0.46653 -0.0155,0.8643 -0.18555,1.20508 0.035,0.34084 -0.17686,0.58321 -0.43554,0.80664 -0.0759,0.17077 -0.1477,0.33267 -0.27149,0.58984 -0.0161,0.0335 -0.0567,0.0924 -0.084,0.14063 -0.002,0.004 0,0.008 -0.002,0.0117 0.009,-0.004 0.0166,-0.008 0.0254,-0.0117 0.01,-0.004 -0.0242,0.0154 -0.0254,0.0176 0.003,0.0127 0.002,0.0261 0.004,0.0391 0.81388,-0.41348 -0.25947,-0.15993 1.33203,-0.35938 0.67965,-0.63304 0.72591,-0.7309 1.81641,-1.25195 0.27329,-0.13058 0.55592,-0.23928 0.83398,-0.35938 -0.399,0.51309 0.0233,-0.077 0.0918,0.041 0.009,0.0148 0.001,0.0403 -0.002,0.0625 0.0635,-0.15376 0.12473,-0.31235 0.18359,-0.47852 0.007,-0.0781 0.012,-0.15638 0.0195,-0.23437 0.0114,-0.11807 -0.0292,-0.25654 0.0391,-0.35352 0.0363,-0.0516 0.0591,0.11329 0.0937,0.16602 0.009,0.0133 0.0183,0.0259 0.0274,0.0391 0.006,-0.008 0.01,-0.024 0.0156,-0.0312 l -0.64648,-1.65234 c 0.35189,-0.16387 -1.12639,-2.62174 -0.41016,-1.68946 -0.0379,-0.10722 -0.11185,-0.24925 -0.19531,-0.39843 -0.2706,-0.18892 -0.49989,-0.3732 -0.71094,-0.57227 z m 1.3086,0.99219 c 0.019,0.0314 0.0316,0.0709 0.0527,0.0996 0.0423,0.0574 0.25916,0.1174 0.20117,0.0762 -0.0979,-0.0701 -0.16496,-0.11385 -0.2539,-0.17578 z m -9.63672,6.98437 c -0.13312,0.0127 -0.30048,0.0216 -0.47852,0.0312 -0.0749,0.0159 -0.0598,0.0153 -0.15039,0.0352 -0.13073,0.0236 -0.26221,0.0444 -0.39258,0.0703 -0.1369,0.086 -0.27465,0.17073 -0.41211,0.25586 0.0289,-0.005 -0.0557,0.008 -0.0312,0.004 -0.022,0.15639 -0.0426,0.31344 -0.0703,0.47851 0.47122,-0.0797 0.94183,-0.18162 1.41406,-0.33008 0.0328,-0.17132 0.0669,-0.34347 0.1211,-0.54492 z m 0.30078,0.14258 c -0.0637,-0.0182 -0.16768,0.14912 -0.26367,0.32227 0.10584,-0.0784 0.21522,-0.15464 0.31054,-0.24219 -0.01,-0.0501 -0.0265,-0.0743 -0.0469,-0.0801 z m -9.86328,6.47656 c -0.22549,0.0592 -0.42189,0.10668 -0.82617,0.24414 -0.26417,0.0898 0.54434,-0.12363 0.8164,-0.18554 0.004,-0.0244 0.006,-0.0345 0.01,-0.0586 z m -7.83008,1.69727 c -0.17182,0.0423 -0.24458,0.0482 -0.49023,0.11914 -0.0721,0.0208 0.15061,0.0719 0.2207,0.0449 0.0943,-0.0362 0.18287,-0.0976 0.26953,-0.16406 z m 11.50781,108.64453 c -0.026,0.13667 -0.0422,0.27479 -0.0644,0.41211 0.0123,-0.003 0.0248,-0.003 0.0371,-0.006 0.13263,-0.0278 0.0526,-0.53937 0.0273,-0.40625 z m -26.32226,3.16016 c -0.45114,0.24897 -0.82341,0.53891 -0.44336,0.79297 0.14809,-0.26383 0.29657,-0.52841 0.44336,-0.79297 z m -1.4043,0.88867 c -0.0702,0.0292 -0.16186,0.0575 -0.20898,0.0879 -0.082,0.12929 -0.36016,0.4908 -0.2461,0.38867 0.109,-0.0976 0.26775,-0.27521 0.45508,-0.47656 z m 20.06445,0.9043 c -0.67,0.0206 -1.37627,0.0284 -1.50976,0.0254 -1.01171,-0.0369 -2.02309,-0.0175 -3.03516,-0.0137 -1.04464,-2.5e-4 -2.09012,-0.002 -3.13477,-0.002 -0.66872,3.7e-4 -1.33723,1.3e-4 -2.00585,0 0.92501,0.39185 1.81502,1.48078 2.24414,3.32813 0.14658,0.63107 0.20199,1.2716 0.24218,1.91406 0.4026,-0.3796 0.0651,-0.75904 1.00782,-1.23633 1.66741,-0.84416 2.62827,-0.9309 3.92578,0.32617 0.0352,-0.0978 0.0592,-0.19959 0.0957,-0.29687 0.494,-1.3154 0.90575,-2.06341 1.52344,-3.29883 0.21564,-0.24882 0.43101,-0.4974 0.64648,-0.74609 z m -12.19726,0.99023 c -0.93577,0.16273 -0.86159,0.11158 -1.62891,0.37695 -0.21723,0.0543 -0.43248,0.11971 -0.65234,0.16211 -0.10943,0.0211 -0.20015,0.0306 -0.30274,0.0469 -0.38269,0.56259 -0.31463,0.39936 -1.1914,0.74414 0.0183,0.12923 -0.15359,0.26395 -0.35352,0.40039 0.52299,0.58352 0.92772,1.47166 1.06445,2.70117 0.0296,0.26596 0.0365,0.38438 0.0547,0.59375 0.72921,0.58898 1.26953,1.70963 1.26953,3.37891 0,0.11023 -0.004,0.15145 -0.006,0.25 0.12629,0.083 0.17273,0.38428 0.23828,0.55273 0.0204,0.0526 0.0443,0.1067 0.0664,0.16016 0.41428,-0.16383 0.83169,-0.31934 1.24805,-0.47852 0.27397,-0.12173 0.54813,-0.24349 0.82226,-0.36523 -0.59311,-0.92754 -0.66831,-2.00986 -0.78906,-3.21875 -0.077,-0.77109 -0.17231,-1.54036 -0.25781,-2.31055 -0.14398,-1.29705 0.0423,-2.29919 0.41797,-2.99414 z m -10.55274,1.06445 c -0.006,0.007 -0.0108,0.0106 -0.0176,0.0176 -0.0732,0.23245 -0.17605,0.55776 -0.13281,0.41797 0.0497,-0.1608 0.10113,-0.2878 0.15039,-0.43555 z m -0.20898,0.21485 c -0.0534,0.0539 -0.11702,0.11501 -0.14649,0.15234 -0.0275,0.0348 0.0694,-0.0556 0.10352,-0.084 0.0146,-0.0226 0.0284,-0.0457 0.043,-0.0684 z m 34.46094,3.14843 c -0.0431,0.0721 -0.0863,0.14439 -0.12891,0.2168 0.004,0.01 0.004,0.0195 0.01,0.0293 0.0167,-0.0409 0.032,-0.0822 0.0488,-0.12305 0.0179,-0.0435 0.0945,-0.16342 0.0703,-0.12305 z m -19.87891,0.41211 c 1.6e-4,0.005 0.01,0.0144 0.0332,0.0312 0.0723,0.0526 0.15017,0.097 0.22461,0.14649 0.0138,-0.0155 0.0271,-0.0313 0.041,-0.0469 -0.15727,-0.0843 -0.29943,-0.14812 -0.29883,-0.13086 z m -11.99805,0.78907 c -0.027,0.019 -0.0493,0.0291 -0.0781,0.0508 -0.0397,0.0299 0.0187,0.0155 0.082,-0.008 -0.001,-0.0152 -0.002,-0.0276 -0.004,-0.043 z m 0.25,1.97656 c -0.0642,0.18619 -0.12476,0.34928 -0.24609,0.67187 0.0227,0.12843 -0.0144,0.0972 0.0703,0.12891 -0.24509,0.59337 -0.47341,1.19374 -0.73633,1.7793 0.0419,-0.0576 0.17039,-0.25379 0.12891,-0.18946 -0.0444,0.0688 -0.09,0.13653 -0.13477,0.20508 -0.0194,0.0431 -0.0348,0.088 -0.0547,0.13086 -0.0347,0.0749 -0.1103,0.14553 -0.15821,0.18945 -0.19785,0.29939 -0.39415,0.59891 -0.59179,0.89844 0.41955,-0.24344 0.45757,-1.14533 0.55664,-0.20703 0.0712,0.67454 0.0562,0.59856 0.0859,1.29883 -0.008,0.35929 -0.006,0.71876 -0.0117,1.07812 0.61225,-0.12873 1.51925,-0.0738 2.22265,0.0137 0.0446,-0.0392 0.0886,-0.0797 0.13281,-0.11914 0.0741,-0.0661 0.15837,-0.12924 0.24805,-0.17578 -0.37423,-0.77468 -0.48943,-1.96621 -0.52344,-3.0332 -0.1847,0.2008 -0.41953,-0.7568 -0.55664,-1.12109 -0.22361,-0.59416 -0.3417,-1.07727 -0.43164,-1.54883 z m 0.5,1.21484 c -0.042,0.0337 0.30358,0.51245 0.4668,0.93164 -0.002,-0.2171 -0.004,-0.36507 -0.002,-0.55468 -0.12597,-0.11445 -0.24752,-0.23427 -0.38282,-0.33594 -0.0482,-0.0363 -0.0733,-0.048 -0.082,-0.041 z m 5.67188,0.1582 c -8.4e-4,0.0287 -8e-4,0.0563 -0.002,0.084 0.002,0.009 0.11555,0.35133 0.11329,0.3457 0.002,10e-4 0.004,0.003 0.006,0.004 -0.0644,-0.20593 -0.0756,-0.28051 -0.11719,-0.4336 z m -4.57227,4.48243 c -0.004,0.007 -0.0113,0.0172 -0.0137,0.0234 0.005,-0.007 0.0105,-0.0125 0.0156,-0.0195 -7.3e-4,-0.001 -0.001,-0.003 -0.002,-0.004 z m -2.71094,2.875 c 8e-5,0.0165 -1.1e-4,0.0417 0,0.0586 0.0553,0.10221 0.11068,0.20442 0.16602,0.30664 0.003,-0.005 0.005,-0.0106 0.008,-0.0156 -0.0608,-0.11603 -0.11626,-0.23286 -0.17383,-0.34961 z m 4.88868,2.49218 c -0.10524,0.16269 -0.15113,0.21955 0.01,0.0117 0.002,-0.006 0.002,-0.006 0.004,-0.0117 -0.005,4e-5 -0.009,-3e-5 -0.0137,0 z m -0.47266,0.83594 c -0.0173,0.0484 -0.0298,0.0903 -0.0469,0.13867 0.0942,-0.0266 0.18909,-0.0514 0.28321,-0.0781 -0.079,-0.021 -0.15407,-0.0352 -0.23633,-0.0606 z m -8.42188,0.69922 c -0.0696,-0.11009 0.0897,0.27368 0.20704,0.33008 0.0156,0.007 0.0107,-0.003 0.0137,-0.006 -0.0772,-0.11601 -0.13548,-0.18957 -0.22071,-0.32422 z m 41.9375,0.16992 c -0.0945,0.10428 -0.18406,0.21656 -0.2871,0.30664 -0.17258,0.15088 -0.31347,0.23989 -0.46094,0.3418 -0.0893,0.14593 -0.19642,0.29987 -0.29688,0.45117 0.06,-0.02 0.12214,-0.0329 0.18164,-0.0547 0.11132,-0.0408 0.16256,-0.17937 0.26758,-0.23437 0.0367,-0.0192 0.24849,-0.1093 0.33203,-0.14844 0,0 0,-0.002 0,-0.002 0.0377,-0.15403 0.13238,-0.37329 0.26367,-0.66016 z m -1.30078,0.99219 c -0.0318,0.0157 -0.0785,0.044 -0.10546,0.0566 -0.0102,0.0519 -0.0257,0.0905 -0.0371,0.13672 0.025,0.002 0.0164,0.005 0.0488,0.008 0.0345,-0.0513 0.0636,-0.12976 0.0937,-0.20117 z m 0.1875,0.25586 c -0.0143,0.0149 -0.0286,0.0301 -0.043,0.0449 -0.005,0.0113 -0.0174,0.0241 -0.0215,0.0352 -0.0117,0.0318 0.0879,-0.10451 0.0644,-0.0801 z m 10.57618,1.36914 c -0.0743,0.005 -0.14837,0.0108 -0.22266,0.0156 -0.11402,0.0153 -0.22781,0.0286 -0.3418,0.0449 -0.0807,0.18838 0.28882,0.0432 0.56446,-0.0605 z m -8.66407,8.2168 c -0.17713,0.17651 -0.34106,0.36625 -0.50781,0.55273 0.0192,-0.0122 0.058,-0.0259 0.0723,-0.0371 0.17704,-0.13839 0.59471,-0.67423 0.43554,-0.51562 z m -6.8164,4.69726 c -0.12775,0.1651 -0.236,0.30026 -0.38086,0.48438 0.006,-0.003 0.0117,-0.007 0.0176,-0.01 0.64614,-0.8421 0.59165,-0.76973 0.36328,-0.47461 z m -0.23633,0.20117 c -0.15444,0.17088 -0.22549,0.2564 -0.3418,0.38868 0.0391,-0.0192 0.0765,-0.0409 0.11524,-0.0606 l 0.002,-0.002 c 0.15618,-0.21266 0.31331,-0.42432 0.22461,-0.32618 z m -5.34961,3.79297 c -0.15055,0.19465 -0.28876,0.38873 -0.43164,0.58203 0.39686,-0.22154 0.7373,-0.46633 0.43164,-0.58203 z m -4.78125,3.21094 c -0.008,0.0238 -0.0114,0.0326 -0.0195,0.0566 0.0183,-0.021 0.021,-0.0391 0.0195,-0.0566 z m -7.56055,16.05664 c -0.001,0.001 -0.003,0.002 -0.004,0.004 -0.0406,0.0523 -0.10503,0.2421 -0.0781,0.18164 0.0275,-0.0619 0.0547,-0.12362 0.082,-0.18555 z m -7.22656,2.79883 c -0.0298,0.0102 -0.06,0.0234 -0.0898,0.0332 -0.0548,0.0181 -0.003,0.2259 0.0176,0.17188 0.0381,-0.10102 0.0406,-0.11831 0.0723,-0.20508 z" />
  <path
     d="M282.734 40.554c0-8.376 6.966-15.165 15.56-15.165 4.126 0 8.084 1.597 11.001 4.441 2.918 2.844 4.558 6.702 4.558 10.724 0 8.376-6.966 15.165-15.56 15.165-8.593 0-15.559-6.79-15.559-15.165z"
     stroke-width="2"
     stroke="#000"
     id="path4" />
  <path
     d="m 118.46646,139.58521 h 35.42244 v 35.42244 H 118.46646 Z M 69.6096,187.22065 h 35.42244 v 35.42244 H 69.6096 Z m 97.69417,0.0208 h 35.42245 V 222.6639 H 167.30377 Z M 86.68996,240.984 h 35.42244 v 35.42244 H 86.68996 Z m 61.07107,-0.0208 h 35.42244 v 35.42245 h -35.42244 z"
     id="path6"
     inkscape:connector-curvature="0"
     style="stroke:#000000;stroke-width:1.22020006;paint-order:markers stroke fill" />
  <circle
     style="fill:#0000ff;fill-opacity:0;stroke:#000000;stroke-width:2.94099998;stroke-miterlimit:4;stroke-dasharray:none;stroke-opacity:1"
     id="path984"
     cx="297.29172"
     cy="152.79913"
     r="17.471359" />
  <circle
     style="fill:#0000ff;fill-opacity:0;stroke:#000000;stroke-width:2.94099998;stroke-miterlimit:4;stroke-dasharray:none;stroke-opacity:1"
     id="path984-5"
     cx="297.29172"
     cy="225.74084"
     r="17.471359" />
  <circle
     style="fill:#0000ff;fill-opacity:0;stroke:#000000;stroke-width:2.94099998;stroke-miterlimit:4;stroke-dasharray:none;stroke-opacity:1"
     id="path984-6"
     cx="297.29172"
     cy="297.42987"
     r="17.471359" />
  <rect
     style="fill:#0000ff;fill-opacity:0;stroke:#000000;stroke-width:3.17570186;stroke-miterlimit:4;stroke-dasharray:none;stroke-opacity:1"
     id="rect1007"
     width="216.12199"
     height="53.984806"
     x="20.97101"
     y="20.193584" />
  <rect
     style="fill:#0000ff;fill-opacity:0;stroke:#000000;stroke-width:2.94099998;stroke-miterlimit:4;stroke-dasharray:none;stroke-opacity:1"
     id="rect818"
     width="348.2561"
     height="346.69208"
     x="-0.52134144"
     y="0.26525205" />
</svg>
